%TF.GenerationSoftware,KiCad,Pcbnew,5.1.9+dfsg1-1+deb11u1*%
%TF.CreationDate,2022-11-29T20:17:50-05:00*%
%TF.ProjectId,Weather_Station_PCB,57656174-6865-4725-9f53-746174696f6e,rev?*%
%TF.SameCoordinates,Original*%
%TF.FileFunction,Soldermask,Top*%
%TF.FilePolarity,Negative*%
%FSLAX46Y46*%
G04 Gerber Fmt 4.6, Leading zero omitted, Abs format (unit mm)*
G04 Created by KiCad (PCBNEW 5.1.9+dfsg1-1+deb11u1) date 2022-11-29 20:17:50*
%MOMM*%
%LPD*%
G01*
G04 APERTURE LIST*
%ADD10C,2.400000*%
%ADD11R,2.400000X2.400000*%
%ADD12C,1.600000*%
%ADD13R,1.600000X1.600000*%
%ADD14O,1.700000X1.700000*%
%ADD15R,1.700000X1.700000*%
%ADD16C,1.500000*%
%ADD17O,1.600000X1.600000*%
G04 APERTURE END LIST*
%TO.C,R6*%
G36*
G01*
X176160000Y-85195001D02*
X176160000Y-83944999D01*
G75*
G02*
X176409999Y-83695000I249999J0D01*
G01*
X177035001Y-83695000D01*
G75*
G02*
X177285000Y-83944999I0J-249999D01*
G01*
X177285000Y-85195001D01*
G75*
G02*
X177035001Y-85445000I-249999J0D01*
G01*
X176409999Y-85445000D01*
G75*
G02*
X176160000Y-85195001I0J249999D01*
G01*
G37*
G36*
G01*
X173235000Y-85195001D02*
X173235000Y-83944999D01*
G75*
G02*
X173484999Y-83695000I249999J0D01*
G01*
X174110001Y-83695000D01*
G75*
G02*
X174360000Y-83944999I0J-249999D01*
G01*
X174360000Y-85195001D01*
G75*
G02*
X174110001Y-85445000I-249999J0D01*
G01*
X173484999Y-85445000D01*
G75*
G02*
X173235000Y-85195001I0J249999D01*
G01*
G37*
%TD*%
%TO.C,R5*%
G36*
G01*
X176160000Y-81905001D02*
X176160000Y-80654999D01*
G75*
G02*
X176409999Y-80405000I249999J0D01*
G01*
X177035001Y-80405000D01*
G75*
G02*
X177285000Y-80654999I0J-249999D01*
G01*
X177285000Y-81905001D01*
G75*
G02*
X177035001Y-82155000I-249999J0D01*
G01*
X176409999Y-82155000D01*
G75*
G02*
X176160000Y-81905001I0J249999D01*
G01*
G37*
G36*
G01*
X173235000Y-81905001D02*
X173235000Y-80654999D01*
G75*
G02*
X173484999Y-80405000I249999J0D01*
G01*
X174110001Y-80405000D01*
G75*
G02*
X174360000Y-80654999I0J-249999D01*
G01*
X174360000Y-81905001D01*
G75*
G02*
X174110001Y-82155000I-249999J0D01*
G01*
X173484999Y-82155000D01*
G75*
G02*
X173235000Y-81905001I0J249999D01*
G01*
G37*
%TD*%
D10*
%TO.C,J8*%
X140660000Y-107950000D03*
D11*
X137160000Y-107950000D03*
%TD*%
D12*
%TO.C,C1*%
X146010000Y-97790000D03*
D13*
X143510000Y-97790000D03*
%TD*%
%TO.C,R4*%
G36*
G01*
X160390000Y-76844999D02*
X160390000Y-78095001D01*
G75*
G02*
X160140001Y-78345000I-249999J0D01*
G01*
X159514999Y-78345000D01*
G75*
G02*
X159265000Y-78095001I0J249999D01*
G01*
X159265000Y-76844999D01*
G75*
G02*
X159514999Y-76595000I249999J0D01*
G01*
X160140001Y-76595000D01*
G75*
G02*
X160390000Y-76844999I0J-249999D01*
G01*
G37*
G36*
G01*
X163315000Y-76844999D02*
X163315000Y-78095001D01*
G75*
G02*
X163065001Y-78345000I-249999J0D01*
G01*
X162439999Y-78345000D01*
G75*
G02*
X162190000Y-78095001I0J249999D01*
G01*
X162190000Y-76844999D01*
G75*
G02*
X162439999Y-76595000I249999J0D01*
G01*
X163065001Y-76595000D01*
G75*
G02*
X163315000Y-76844999I0J-249999D01*
G01*
G37*
%TD*%
D14*
%TO.C,J7*%
X187960000Y-95250000D03*
X187960000Y-92710000D03*
X187960000Y-90170000D03*
D15*
X187960000Y-87630000D03*
%TD*%
D14*
%TO.C,J6*%
X187960000Y-82640000D03*
X187960000Y-80100000D03*
X187960000Y-77560000D03*
D15*
X187960000Y-75020000D03*
%TD*%
D14*
%TO.C,J5*%
X187960000Y-107950000D03*
X187960000Y-105410000D03*
X187960000Y-102870000D03*
D15*
X187960000Y-100330000D03*
%TD*%
D16*
%TO.C,J3*%
X142240000Y-76000000D03*
X142240000Y-71120000D03*
%TD*%
D17*
%TO.C,U1*%
X165100000Y-90170000D03*
X132080000Y-82550000D03*
X162560000Y-90170000D03*
X134620000Y-82550000D03*
X160020000Y-90170000D03*
X137160000Y-82550000D03*
X157480000Y-90170000D03*
X139700000Y-82550000D03*
X154940000Y-90170000D03*
X142240000Y-82550000D03*
X152400000Y-90170000D03*
X144780000Y-82550000D03*
X149860000Y-90170000D03*
X147320000Y-82550000D03*
X147320000Y-90170000D03*
X149860000Y-82550000D03*
X144780000Y-90170000D03*
X152400000Y-82550000D03*
X142240000Y-90170000D03*
X154940000Y-82550000D03*
X139700000Y-90170000D03*
X157480000Y-82550000D03*
X137160000Y-90170000D03*
X160020000Y-82550000D03*
X134620000Y-90170000D03*
X162560000Y-82550000D03*
X132080000Y-90170000D03*
D13*
X165100000Y-82550000D03*
%TD*%
D14*
%TO.C,J4*%
X176530000Y-111760000D03*
X176530000Y-109220000D03*
D15*
X176530000Y-106680000D03*
%TD*%
D14*
%TO.C,J2*%
X161290000Y-102870000D03*
X161290000Y-105410000D03*
X158750000Y-102870000D03*
X158750000Y-105410000D03*
X156210000Y-102870000D03*
D15*
X156210000Y-105410000D03*
%TD*%
D14*
%TO.C,J1*%
X130810000Y-100330000D03*
D15*
X130810000Y-97790000D03*
%TD*%
%TO.C,C2*%
G36*
G01*
X150350000Y-73040001D02*
X150350000Y-71739999D01*
G75*
G02*
X150599999Y-71490000I249999J0D01*
G01*
X151250001Y-71490000D01*
G75*
G02*
X151500000Y-71739999I0J-249999D01*
G01*
X151500000Y-73040001D01*
G75*
G02*
X151250001Y-73290000I-249999J0D01*
G01*
X150599999Y-73290000D01*
G75*
G02*
X150350000Y-73040001I0J249999D01*
G01*
G37*
G36*
G01*
X153300000Y-73040001D02*
X153300000Y-71739999D01*
G75*
G02*
X153549999Y-71490000I249999J0D01*
G01*
X154200001Y-71490000D01*
G75*
G02*
X154450000Y-71739999I0J-249999D01*
G01*
X154450000Y-73040001D01*
G75*
G02*
X154200001Y-73290000I-249999J0D01*
G01*
X153549999Y-73290000D01*
G75*
G02*
X153300000Y-73040001I0J249999D01*
G01*
G37*
%TD*%
%TO.C,C3*%
G36*
G01*
X153300000Y-76850001D02*
X153300000Y-75549999D01*
G75*
G02*
X153549999Y-75300000I249999J0D01*
G01*
X154200001Y-75300000D01*
G75*
G02*
X154450000Y-75549999I0J-249999D01*
G01*
X154450000Y-76850001D01*
G75*
G02*
X154200001Y-77100000I-249999J0D01*
G01*
X153549999Y-77100000D01*
G75*
G02*
X153300000Y-76850001I0J249999D01*
G01*
G37*
G36*
G01*
X150350000Y-76850001D02*
X150350000Y-75549999D01*
G75*
G02*
X150599999Y-75300000I249999J0D01*
G01*
X151250001Y-75300000D01*
G75*
G02*
X151500000Y-75549999I0J-249999D01*
G01*
X151500000Y-76850001D01*
G75*
G02*
X151250001Y-77100000I-249999J0D01*
G01*
X150599999Y-77100000D01*
G75*
G02*
X150350000Y-76850001I0J249999D01*
G01*
G37*
%TD*%
%TO.C,D1*%
G36*
G01*
X170935000Y-100975000D02*
X170935000Y-102225000D01*
G75*
G02*
X170685000Y-102475000I-250000J0D01*
G01*
X169935000Y-102475000D01*
G75*
G02*
X169685000Y-102225000I0J250000D01*
G01*
X169685000Y-100975000D01*
G75*
G02*
X169935000Y-100725000I250000J0D01*
G01*
X170685000Y-100725000D01*
G75*
G02*
X170935000Y-100975000I0J-250000D01*
G01*
G37*
G36*
G01*
X168135000Y-100975000D02*
X168135000Y-102225000D01*
G75*
G02*
X167885000Y-102475000I-250000J0D01*
G01*
X167135000Y-102475000D01*
G75*
G02*
X166885000Y-102225000I0J250000D01*
G01*
X166885000Y-100975000D01*
G75*
G02*
X167135000Y-100725000I250000J0D01*
G01*
X167885000Y-100725000D01*
G75*
G02*
X168135000Y-100975000I0J-250000D01*
G01*
G37*
%TD*%
%TO.C,D2*%
G36*
G01*
X151905000Y-112385000D02*
X151905000Y-111135000D01*
G75*
G02*
X152155000Y-110885000I250000J0D01*
G01*
X152905000Y-110885000D01*
G75*
G02*
X153155000Y-111135000I0J-250000D01*
G01*
X153155000Y-112385000D01*
G75*
G02*
X152905000Y-112635000I-250000J0D01*
G01*
X152155000Y-112635000D01*
G75*
G02*
X151905000Y-112385000I0J250000D01*
G01*
G37*
G36*
G01*
X149105000Y-112385000D02*
X149105000Y-111135000D01*
G75*
G02*
X149355000Y-110885000I250000J0D01*
G01*
X150105000Y-110885000D01*
G75*
G02*
X150355000Y-111135000I0J-250000D01*
G01*
X150355000Y-112385000D01*
G75*
G02*
X150105000Y-112635000I-250000J0D01*
G01*
X149355000Y-112635000D01*
G75*
G02*
X149105000Y-112385000I0J250000D01*
G01*
G37*
%TD*%
%TO.C,R1*%
G36*
G01*
X160775000Y-95894998D02*
X160775000Y-97145002D01*
G75*
G02*
X160525002Y-97395000I-249998J0D01*
G01*
X159899998Y-97395000D01*
G75*
G02*
X159650000Y-97145002I0J249998D01*
G01*
X159650000Y-95894998D01*
G75*
G02*
X159899998Y-95645000I249998J0D01*
G01*
X160525002Y-95645000D01*
G75*
G02*
X160775000Y-95894998I0J-249998D01*
G01*
G37*
G36*
G01*
X157850000Y-95894998D02*
X157850000Y-97145002D01*
G75*
G02*
X157600002Y-97395000I-249998J0D01*
G01*
X156974998Y-97395000D01*
G75*
G02*
X156725000Y-97145002I0J249998D01*
G01*
X156725000Y-95894998D01*
G75*
G02*
X156974998Y-95645000I249998J0D01*
G01*
X157600002Y-95645000D01*
G75*
G02*
X157850000Y-95894998I0J-249998D01*
G01*
G37*
%TD*%
%TO.C,R2*%
G36*
G01*
X177938000Y-102225002D02*
X177938000Y-100974998D01*
G75*
G02*
X178187998Y-100725000I249998J0D01*
G01*
X178813002Y-100725000D01*
G75*
G02*
X179063000Y-100974998I0J-249998D01*
G01*
X179063000Y-102225002D01*
G75*
G02*
X178813002Y-102475000I-249998J0D01*
G01*
X178187998Y-102475000D01*
G75*
G02*
X177938000Y-102225002I0J249998D01*
G01*
G37*
G36*
G01*
X175013000Y-102225002D02*
X175013000Y-100974998D01*
G75*
G02*
X175262998Y-100725000I249998J0D01*
G01*
X175888002Y-100725000D01*
G75*
G02*
X176138000Y-100974998I0J-249998D01*
G01*
X176138000Y-102225002D01*
G75*
G02*
X175888002Y-102475000I-249998J0D01*
G01*
X175262998Y-102475000D01*
G75*
G02*
X175013000Y-102225002I0J249998D01*
G01*
G37*
%TD*%
%TO.C,R3*%
G36*
G01*
X145295000Y-108575002D02*
X145295000Y-107324998D01*
G75*
G02*
X145544998Y-107075000I249998J0D01*
G01*
X146170002Y-107075000D01*
G75*
G02*
X146420000Y-107324998I0J-249998D01*
G01*
X146420000Y-108575002D01*
G75*
G02*
X146170002Y-108825000I-249998J0D01*
G01*
X145544998Y-108825000D01*
G75*
G02*
X145295000Y-108575002I0J249998D01*
G01*
G37*
G36*
G01*
X148220000Y-108575002D02*
X148220000Y-107324998D01*
G75*
G02*
X148469998Y-107075000I249998J0D01*
G01*
X149095002Y-107075000D01*
G75*
G02*
X149345000Y-107324998I0J-249998D01*
G01*
X149345000Y-108575002D01*
G75*
G02*
X149095002Y-108825000I-249998J0D01*
G01*
X148469998Y-108825000D01*
G75*
G02*
X148220000Y-108575002I0J249998D01*
G01*
G37*
%TD*%
M02*
