%TF.GenerationSoftware,KiCad,Pcbnew,5.1.9+dfsg1-1+deb11u1*%
%TF.CreationDate,2022-11-29T20:17:50-05:00*%
%TF.ProjectId,Weather_Station_PCB,57656174-6865-4725-9f53-746174696f6e,rev?*%
%TF.SameCoordinates,Original*%
%TF.FileFunction,Soldermask,Bot*%
%TF.FilePolarity,Negative*%
%FSLAX46Y46*%
G04 Gerber Fmt 4.6, Leading zero omitted, Abs format (unit mm)*
G04 Created by KiCad (PCBNEW 5.1.9+dfsg1-1+deb11u1) date 2022-11-29 20:17:50*
%MOMM*%
%LPD*%
G01*
G04 APERTURE LIST*
%ADD10C,2.400000*%
%ADD11R,2.400000X2.400000*%
%ADD12C,1.600000*%
%ADD13R,1.600000X1.600000*%
%ADD14O,1.700000X1.700000*%
%ADD15R,1.700000X1.700000*%
%ADD16C,1.500000*%
%ADD17O,1.600000X1.600000*%
G04 APERTURE END LIST*
D10*
%TO.C,J8*%
X140660000Y-107950000D03*
D11*
X137160000Y-107950000D03*
%TD*%
D12*
%TO.C,C1*%
X146010000Y-97790000D03*
D13*
X143510000Y-97790000D03*
%TD*%
D14*
%TO.C,J7*%
X187960000Y-95250000D03*
X187960000Y-92710000D03*
X187960000Y-90170000D03*
D15*
X187960000Y-87630000D03*
%TD*%
D14*
%TO.C,J6*%
X187960000Y-82640000D03*
X187960000Y-80100000D03*
X187960000Y-77560000D03*
D15*
X187960000Y-75020000D03*
%TD*%
D14*
%TO.C,J5*%
X187960000Y-107950000D03*
X187960000Y-105410000D03*
X187960000Y-102870000D03*
D15*
X187960000Y-100330000D03*
%TD*%
D16*
%TO.C,J3*%
X142240000Y-76000000D03*
X142240000Y-71120000D03*
%TD*%
D17*
%TO.C,U1*%
X165100000Y-90170000D03*
X132080000Y-82550000D03*
X162560000Y-90170000D03*
X134620000Y-82550000D03*
X160020000Y-90170000D03*
X137160000Y-82550000D03*
X157480000Y-90170000D03*
X139700000Y-82550000D03*
X154940000Y-90170000D03*
X142240000Y-82550000D03*
X152400000Y-90170000D03*
X144780000Y-82550000D03*
X149860000Y-90170000D03*
X147320000Y-82550000D03*
X147320000Y-90170000D03*
X149860000Y-82550000D03*
X144780000Y-90170000D03*
X152400000Y-82550000D03*
X142240000Y-90170000D03*
X154940000Y-82550000D03*
X139700000Y-90170000D03*
X157480000Y-82550000D03*
X137160000Y-90170000D03*
X160020000Y-82550000D03*
X134620000Y-90170000D03*
X162560000Y-82550000D03*
X132080000Y-90170000D03*
D13*
X165100000Y-82550000D03*
%TD*%
D14*
%TO.C,J4*%
X176530000Y-111760000D03*
X176530000Y-109220000D03*
D15*
X176530000Y-106680000D03*
%TD*%
D14*
%TO.C,J2*%
X161290000Y-102870000D03*
X161290000Y-105410000D03*
X158750000Y-102870000D03*
X158750000Y-105410000D03*
X156210000Y-102870000D03*
D15*
X156210000Y-105410000D03*
%TD*%
D14*
%TO.C,J1*%
X130810000Y-100330000D03*
D15*
X130810000Y-97790000D03*
%TD*%
M02*
