%TF.GenerationSoftware,KiCad,Pcbnew,5.1.9+dfsg1-1+deb11u1*%
%TF.CreationDate,2022-11-29T20:17:50-05:00*%
%TF.ProjectId,Weather_Station_PCB,57656174-6865-4725-9f53-746174696f6e,rev?*%
%TF.SameCoordinates,Original*%
%TF.FileFunction,Copper,L2,Bot*%
%TF.FilePolarity,Positive*%
%FSLAX46Y46*%
G04 Gerber Fmt 4.6, Leading zero omitted, Abs format (unit mm)*
G04 Created by KiCad (PCBNEW 5.1.9+dfsg1-1+deb11u1) date 2022-11-29 20:17:50*
%MOMM*%
%LPD*%
G01*
G04 APERTURE LIST*
%TA.AperFunction,ComponentPad*%
%ADD10C,2.400000*%
%TD*%
%TA.AperFunction,ComponentPad*%
%ADD11R,2.400000X2.400000*%
%TD*%
%TA.AperFunction,ComponentPad*%
%ADD12C,1.600000*%
%TD*%
%TA.AperFunction,ComponentPad*%
%ADD13R,1.600000X1.600000*%
%TD*%
%TA.AperFunction,ComponentPad*%
%ADD14O,1.700000X1.700000*%
%TD*%
%TA.AperFunction,ComponentPad*%
%ADD15R,1.700000X1.700000*%
%TD*%
%TA.AperFunction,ComponentPad*%
%ADD16C,1.500000*%
%TD*%
%TA.AperFunction,ComponentPad*%
%ADD17O,1.600000X1.600000*%
%TD*%
%TA.AperFunction,ViaPad*%
%ADD18C,5.500000*%
%TD*%
%TA.AperFunction,ViaPad*%
%ADD19C,0.800000*%
%TD*%
%TA.AperFunction,Conductor*%
%ADD20C,0.250000*%
%TD*%
%TA.AperFunction,Conductor*%
%ADD21C,0.750000*%
%TD*%
G04 APERTURE END LIST*
D10*
%TO.P,J8,2*%
%TO.N,0*%
X140660000Y-107950000D03*
D11*
%TO.P,J8,1*%
%TO.N,Net-(C1-Pad1)*%
X137160000Y-107950000D03*
%TD*%
D12*
%TO.P,C1,2*%
%TO.N,0*%
X146010000Y-97790000D03*
D13*
%TO.P,C1,1*%
%TO.N,Net-(C1-Pad1)*%
X143510000Y-97790000D03*
%TD*%
D14*
%TO.P,J7,4*%
%TO.N,Net-(J5-Pad4)*%
X187960000Y-95250000D03*
%TO.P,J7,3*%
%TO.N,0*%
X187960000Y-92710000D03*
%TO.P,J7,2*%
%TO.N,Net-(J5-Pad2)*%
X187960000Y-90170000D03*
D15*
%TO.P,J7,1*%
%TO.N,Net-(C1-Pad1)*%
X187960000Y-87630000D03*
%TD*%
D14*
%TO.P,J6,4*%
%TO.N,Net-(J5-Pad4)*%
X187960000Y-82640000D03*
%TO.P,J6,3*%
%TO.N,0*%
X187960000Y-80100000D03*
%TO.P,J6,2*%
%TO.N,Net-(J5-Pad2)*%
X187960000Y-77560000D03*
D15*
%TO.P,J6,1*%
%TO.N,Net-(C1-Pad1)*%
X187960000Y-75020000D03*
%TD*%
D14*
%TO.P,J5,4*%
%TO.N,Net-(J5-Pad4)*%
X187960000Y-107950000D03*
%TO.P,J5,3*%
%TO.N,0*%
X187960000Y-105410000D03*
%TO.P,J5,2*%
%TO.N,Net-(J5-Pad2)*%
X187960000Y-102870000D03*
D15*
%TO.P,J5,1*%
%TO.N,Net-(C1-Pad1)*%
X187960000Y-100330000D03*
%TD*%
D16*
%TO.P,J3,2*%
%TO.N,Net-(C3-Pad1)*%
X142240000Y-76000000D03*
%TO.P,J3,1*%
%TO.N,Net-(C2-Pad1)*%
X142240000Y-71120000D03*
%TD*%
D17*
%TO.P,U1,28*%
%TO.N,Net-(J5-Pad4)*%
X165100000Y-90170000D03*
%TO.P,U1,14*%
%TO.N,Net-(U1-Pad14)*%
X132080000Y-82550000D03*
%TO.P,U1,27*%
%TO.N,Net-(J5-Pad2)*%
X162560000Y-90170000D03*
%TO.P,U1,13*%
%TO.N,Net-(U1-Pad13)*%
X134620000Y-82550000D03*
%TO.P,U1,26*%
%TO.N,Net-(U1-Pad26)*%
X160020000Y-90170000D03*
%TO.P,U1,12*%
%TO.N,Net-(U1-Pad12)*%
X137160000Y-82550000D03*
%TO.P,U1,25*%
%TO.N,Net-(U1-Pad25)*%
X157480000Y-90170000D03*
%TO.P,U1,11*%
%TO.N,Net-(U1-Pad11)*%
X139700000Y-82550000D03*
%TO.P,U1,24*%
%TO.N,Net-(U1-Pad24)*%
X154940000Y-90170000D03*
%TO.P,U1,10*%
%TO.N,Net-(C3-Pad1)*%
X142240000Y-82550000D03*
%TO.P,U1,23*%
%TO.N,Net-(U1-Pad23)*%
X152400000Y-90170000D03*
%TO.P,U1,9*%
%TO.N,Net-(C2-Pad1)*%
X144780000Y-82550000D03*
%TO.P,U1,22*%
%TO.N,0*%
X149860000Y-90170000D03*
%TO.P,U1,8*%
X147320000Y-82550000D03*
%TO.P,U1,21*%
%TO.N,Net-(U1-Pad21)*%
X147320000Y-90170000D03*
%TO.P,U1,7*%
%TO.N,Net-(C1-Pad1)*%
X149860000Y-82550000D03*
%TO.P,U1,20*%
%TO.N,Net-(U1-Pad20)*%
X144780000Y-90170000D03*
%TO.P,U1,6*%
%TO.N,Net-(U1-Pad6)*%
X152400000Y-82550000D03*
%TO.P,U1,19*%
%TO.N,Net-(J2-Pad4)*%
X142240000Y-90170000D03*
%TO.P,U1,5*%
%TO.N,Net-(U1-Pad5)*%
X154940000Y-82550000D03*
%TO.P,U1,18*%
%TO.N,Net-(J2-Pad6)*%
X139700000Y-90170000D03*
%TO.P,U1,4*%
%TO.N,Net-(U1-Pad4)*%
X157480000Y-82550000D03*
%TO.P,U1,17*%
%TO.N,Net-(J2-Pad3)*%
X137160000Y-90170000D03*
%TO.P,U1,3*%
%TO.N,Net-(D1-Pad2)*%
X160020000Y-82550000D03*
%TO.P,U1,16*%
%TO.N,Net-(U1-Pad16)*%
X134620000Y-90170000D03*
%TO.P,U1,2*%
%TO.N,Net-(U1-Pad2)*%
X162560000Y-82550000D03*
%TO.P,U1,15*%
%TO.N,Net-(U1-Pad15)*%
X132080000Y-90170000D03*
D13*
%TO.P,U1,1*%
%TO.N,Net-(J2-Pad2)*%
X165100000Y-82550000D03*
%TD*%
D14*
%TO.P,J4,3*%
%TO.N,0*%
X176530000Y-111760000D03*
%TO.P,J4,2*%
%TO.N,Net-(C1-Pad1)*%
X176530000Y-109220000D03*
D15*
%TO.P,J4,1*%
%TO.N,Net-(D1-Pad2)*%
X176530000Y-106680000D03*
%TD*%
D14*
%TO.P,J2,6*%
%TO.N,Net-(J2-Pad6)*%
X161290000Y-102870000D03*
%TO.P,J2,5*%
%TO.N,Net-(C1-Pad1)*%
X161290000Y-105410000D03*
%TO.P,J2,4*%
%TO.N,Net-(J2-Pad4)*%
X158750000Y-102870000D03*
%TO.P,J2,3*%
%TO.N,Net-(J2-Pad3)*%
X158750000Y-105410000D03*
%TO.P,J2,2*%
%TO.N,Net-(J2-Pad2)*%
X156210000Y-102870000D03*
D15*
%TO.P,J2,1*%
%TO.N,0*%
X156210000Y-105410000D03*
%TD*%
D14*
%TO.P,J1,2*%
%TO.N,0*%
X130810000Y-100330000D03*
D15*
%TO.P,J1,1*%
%TO.N,Net-(C1-Pad1)*%
X130810000Y-97790000D03*
%TD*%
D18*
%TO.N,*%
X127000000Y-69000000D03*
X192000000Y-69000000D03*
X192000000Y-112000000D03*
X127000000Y-112000000D03*
D19*
%TO.N,0*%
X181610000Y-106680000D03*
%TO.N,Net-(C1-Pad1)*%
X143510000Y-87630000D03*
X153924000Y-110236000D03*
%TO.N,Net-(C3-Pad1)*%
X146758000Y-76000000D03*
%TO.N,Net-(J5-Pad2)*%
X180340000Y-81280000D03*
%TO.N,Net-(D1-Pad2)*%
X158750000Y-91440000D03*
%TO.N,Net-(J2-Pad6)*%
X151130000Y-92710000D03*
%TD*%
D20*
%TO.N,0*%
X185889002Y-111760000D02*
X189230000Y-108419002D01*
X189230000Y-108419002D02*
X189230000Y-81280000D01*
X189140000Y-81280000D02*
X187960000Y-80100000D01*
X189230000Y-81280000D02*
X189140000Y-81280000D01*
X187960000Y-92710000D02*
X189230000Y-93980000D01*
X187960000Y-105410000D02*
X189230000Y-106680000D01*
X181610000Y-111760000D02*
X181610000Y-106680000D01*
X176530000Y-111760000D02*
X181610000Y-111760000D01*
X181610000Y-111760000D02*
X185889002Y-111760000D01*
X181610000Y-106680000D02*
X181610000Y-106680000D01*
D21*
%TO.N,Net-(C1-Pad1)*%
X143510000Y-97790000D02*
X137160000Y-104140000D01*
X137160000Y-104140000D02*
X137160000Y-107950000D01*
D20*
X154940000Y-109220000D02*
X176530000Y-109220000D01*
X143510000Y-97790000D02*
X154940000Y-109220000D01*
X161290000Y-105410000D02*
X161290000Y-109220000D01*
X149860000Y-82550000D02*
X144780000Y-87630000D01*
X144780000Y-87630000D02*
X143510000Y-87630000D01*
X143510000Y-87630000D02*
X143510000Y-87630000D01*
X154940000Y-109220000D02*
X153924000Y-110236000D01*
X153924000Y-110236000D02*
X153924000Y-110236000D01*
%TO.N,Net-(J2-Pad4)*%
X158750000Y-102870000D02*
X151130000Y-95250000D01*
X147320000Y-95250000D02*
X142240000Y-90170000D01*
X151130000Y-95250000D02*
X147320000Y-95250000D01*
%TO.N,Net-(J2-Pad3)*%
X154639997Y-104234999D02*
X144384998Y-93980000D01*
X157574999Y-104234999D02*
X154639997Y-104234999D01*
X158750000Y-105410000D02*
X157574999Y-104234999D01*
X140970000Y-93980000D02*
X137160000Y-90170000D01*
X144384998Y-93980000D02*
X140970000Y-93980000D01*
%TO.N,Net-(C3-Pad1)*%
X142240000Y-76000000D02*
X146758000Y-76000000D01*
X146758000Y-76000000D02*
X146758000Y-76000000D01*
%TO.N,Net-(J5-Pad2)*%
X186784999Y-78735001D02*
X187960000Y-77560000D01*
X187960000Y-102870000D02*
X186784999Y-101694999D01*
X187960000Y-90170000D02*
X186784999Y-91345001D01*
X186784999Y-91345001D02*
X186784999Y-78735001D01*
X184005001Y-91295001D02*
X186784999Y-94074999D01*
X162560000Y-90170000D02*
X163685001Y-91295001D01*
X163685001Y-91295001D02*
X184005001Y-91295001D01*
X186784999Y-94074999D02*
X186784999Y-91345001D01*
X186784999Y-101694999D02*
X186784999Y-94074999D01*
X186784999Y-78735001D02*
X182884999Y-78735001D01*
X182884999Y-78735001D02*
X180340000Y-81280000D01*
X180340000Y-81280000D02*
X180340000Y-81280000D01*
%TO.N,Net-(D1-Pad2)*%
X160020000Y-82550000D02*
X158750000Y-83820000D01*
X158750000Y-83820000D02*
X158750000Y-90565002D01*
X158750000Y-90565002D02*
X158750000Y-91440000D01*
X158750000Y-91440000D02*
X158750000Y-91440000D01*
%TO.N,Net-(J2-Pad6)*%
X139700000Y-90170000D02*
X141514999Y-88355001D01*
X146194999Y-90710001D02*
X148194998Y-92710000D01*
X146194999Y-89919997D02*
X146194999Y-90710001D01*
X144630003Y-88355001D02*
X146194999Y-89919997D01*
X141514999Y-88355001D02*
X144630003Y-88355001D01*
X148194998Y-92710000D02*
X151130000Y-92710000D01*
X151130000Y-92710000D02*
X151130000Y-92710000D01*
%TD*%
M02*
