M48
; DRILL file {KiCad 5.1.9+dfsg1-1+deb11u1} date Tue Nov 29 20:17:49 2022
; FORMAT={-:-/ absolute / inch / decimal}
; #@! TF.CreationDate,2022-11-29T20:17:49-05:00
; #@! TF.GenerationSoftware,Kicad,Pcbnew,5.1.9+dfsg1-1+deb11u1
; #@! TF.FileFunction,Plated,1,2,PTH
FMAT,2
INCH
T1C0.0157
T2C0.0315
T3C0.0394
T4C0.0472
T5C0.1378
%
G90
G05
T1
X5.65Y-3.45
X5.7779Y-2.9921
X5.95Y-3.65
X6.06Y-4.34
X6.25Y-3.6
X7.1Y-3.2
X7.15Y-4.2
T2
X5.2Y-3.25
X5.2Y-3.55
X5.3Y-3.25
X5.3Y-3.55
X5.4Y-3.25
X5.4Y-3.55
X5.5Y-3.25
X5.5Y-3.55
X5.6Y-2.8
X5.6Y-2.9921
X5.6Y-3.25
X5.6Y-3.55
X5.65Y-3.85
X5.7Y-3.25
X5.7Y-3.55
X5.7484Y-3.85
X5.8Y-3.25
X5.8Y-3.55
X5.9Y-3.25
X5.9Y-3.55
X6.0Y-3.25
X6.0Y-3.55
X6.1Y-3.25
X6.1Y-3.55
X6.2Y-3.25
X6.2Y-3.55
X6.3Y-3.25
X6.3Y-3.55
X6.4Y-3.25
X6.4Y-3.55
X6.5Y-3.25
X6.5Y-3.55
T3
X5.15Y-3.85
X5.15Y-3.95
X6.15Y-4.05
X6.15Y-4.15
X6.25Y-4.05
X6.25Y-4.15
X6.35Y-4.05
X6.35Y-4.15
X6.95Y-4.2
X6.95Y-4.3
X6.95Y-4.4
X7.4Y-2.9535
X7.4Y-3.0535
X7.4Y-3.1535
X7.4Y-3.2535
X7.4Y-3.45
X7.4Y-3.55
X7.4Y-3.65
X7.4Y-3.75
X7.4Y-3.95
X7.4Y-4.05
X7.4Y-4.15
X7.4Y-4.25
T4
X5.4Y-4.25
X5.5378Y-4.25
T5
X5.0Y-2.7165
X5.0Y-4.4094
X7.5591Y-2.7165
X7.5591Y-4.4094
T0
M30
